<svg width="32" height="32" viewBox="0 0 32 32" fill="none" xmlns="http://www.w3.org/2000/svg">
<path d="M13 1.73207C14.8564 0.660274 17.1436 0.660273 19 1.73207L26.8564 6.26797C28.7128 7.33977 29.8564 9.32053 29.8564 11.4641V20.5359C29.8564 22.6795 28.7128 24.6603 26.8564 25.7321L19 30.268C17.1436 31.3398 14.8564 31.3398 13 30.268L5.14355 25.7321C3.28715 24.6603 2.14355 22.6795 2.14355 20.5359V11.4641C2.14355 9.32053 3.28715 7.33977 5.14355 6.26797L13 1.73207Z" fill="url(#paint0_linear_11265_20811)"/>
<path d="M11.5001 16.1387L16.1039 8.5V8.50363L16.1049 8.5L20.7079 16.1377L20.7104 16.1388L16.1066 18.8601V18.8593L16.1049 18.8603L16.1039 18.8592V18.8601L11.5001 16.1387Z" fill="white"/>
<path d="M16.1039 23.4968V23.5L11.5 17.0124L16.1039 19.7323V19.7337L16.105 19.7323L20.7115 17.0124L16.105 23.5L16.1039 23.4968Z" fill="white"/>
<defs>
<linearGradient id="paint0_linear_11265_20811" x1="16" y1="0.928223" x2="16" y2="31.0718" gradientUnits="userSpaceOnUse">
<stop stop-color="#9A7DE8"/>
<stop offset="1" stop-color="#7852E0"/>
</linearGradient>
</defs>
</svg>
