<svg width="81" height="26" viewBox="0 0 81 26" fill="none" xmlns="http://www.w3.org/2000/svg">
<path d="M10 1.73205C11.8564 0.660254 14.1436 0.660254 16 1.73205L21.2583 4.76795C23.1147 5.83975 24.2583 7.82051 24.2583 9.9641V16.0359C24.2583 18.1795 23.1147 20.1603 21.2583 21.232L16 24.268C14.1436 25.3397 11.8564 25.3397 10 24.268L4.74167 21.232C2.88526 20.1603 1.74167 18.1795 1.74167 16.0359V9.9641C1.74167 7.82051 2.88526 5.83975 4.74167 4.76795L10 1.73205Z" fill="url(#paint0_linear_11265_20771)"/>
<path d="M8.08844 12.3401L8.05442 12.3741C7.37928 13.0493 7 13.9649 7 14.9197V14.9286C7 14.1002 7.67157 13.4286 8.5 13.4286L9.14286 13.4286L10.5402 13.4285C11.0175 13.4285 11.4754 13.2389 11.8129 12.9013L12.9014 11.8129C13.2389 11.4753 13.4286 11.0175 13.4286 10.5401L13.4286 9.14286V10.5357C13.4286 10.9499 13.0928 11.2857 12.6786 11.2857H11.2857L12.1429 11.2857H10.634C9.67925 11.2857 8.76357 11.665 8.08844 12.3401Z" fill="white"/>
<path d="M15.5714 9.14286L16.9946 7.77438C17.2867 7.49355 17.0879 7 16.6827 7H14.9197C13.9649 7 13.0493 7.37928 12.3741 8.05441L12.3401 8.08844C11.665 8.76357 11.2857 9.67925 11.2857 10.634L11.2857 10.6428C11.2857 9.81439 11.9573 9.14282 12.7857 9.14282L13.4286 9.14286H15.5714Z" fill="white"/>
<path d="M13.4286 10.5357V9.14293L12.7857 9.14288C11.9573 9.14288 11.2857 9.81446 11.2857 10.6429V11.2857H12.6786C13.0928 11.2857 13.4286 10.95 13.4286 10.5357Z" fill="white" fill-opacity="0.45"/>
<path d="M9.14286 13.5804V13.4286L8.5 13.4287C7.67157 13.4287 7 14.1003 7 14.9287V16.6001V16.628C7 17.0289 7.48471 17.2297 7.7682 16.9462L9.14286 15.5715V13.5804Z" fill="white" fill-opacity="0.45"/>
<path d="M17.9116 13.6599L17.9456 13.6259C18.6207 12.9507 19 12.0351 19 11.0803V11.0714C19 11.8998 18.3284 12.5714 17.5 12.5714L16.8571 12.5714L15.4598 12.5715C14.9825 12.5715 14.5246 12.7611 14.1871 13.0987L13.0986 14.1871C12.7611 14.5247 12.5714 14.9825 12.5714 15.4599L12.5714 16.8571V15.4643C12.5714 15.0501 12.9072 14.7143 13.3214 14.7143H14.7143L13.8571 14.7143H15.366C16.3208 14.7143 17.2364 14.335 17.9116 13.6599Z" fill="white"/>
<path d="M10.4286 16.8571L9.00536 18.2256C8.71329 18.5065 8.91208 19 9.31726 19H11.0803C12.0351 19 12.9507 18.6207 13.6259 17.9456L13.6599 17.9116C14.335 17.2364 14.7143 16.3208 14.7143 15.366L14.7143 15.3572C14.7143 16.1856 14.0427 16.8572 13.2143 16.8572L12.5714 16.8571H10.4286Z" fill="white"/>
<path d="M12.5714 15.4643V16.8571L13.2143 16.8571C14.0427 16.8571 14.7143 16.1855 14.7143 15.3571V14.7143H13.3214C12.9072 14.7143 12.5714 15.05 12.5714 15.4643Z" fill="white" fill-opacity="0.45"/>
<path d="M16.8571 12.4196V12.5714L17.5 12.5713C18.3284 12.5713 19 11.8997 19 11.0713V9.39993V9.372C19 8.97109 18.5153 8.77032 18.2318 9.0538L16.8571 10.4285V12.4196Z" fill="white" fill-opacity="0.45"/>
<path d="M35.278 17.644C34.03 17.644 32.994 17.232 32.17 16.408C31.346 15.576 30.934 14.54 30.934 13.3C30.934 12.06 31.346 11.028 32.17 10.204C32.994 9.372 34.03 8.956 35.278 8.956C36.27 8.956 37.13 9.236 37.858 9.796C38.594 10.348 39.086 11.076 39.334 11.98H37.498C37.298 11.54 37.002 11.2 36.61 10.96C36.226 10.712 35.778 10.588 35.266 10.588C34.498 10.588 33.87 10.844 33.382 11.356C32.902 11.86 32.662 12.508 32.662 13.3C32.662 14.092 32.902 14.744 33.382 15.256C33.87 15.76 34.498 16.012 35.266 16.012C35.778 16.012 36.226 15.892 36.61 15.652C37.002 15.404 37.298 15.06 37.498 14.62H39.334C39.086 15.524 38.594 16.256 37.858 16.816C37.13 17.368 36.27 17.644 35.278 17.644ZM45.539 17.5L43.367 14.476H42.419V17.5H40.703V9.1H44.315C45.211 9.1 45.911 9.348 46.415 9.844C46.927 10.332 47.183 10.996 47.183 11.836C47.183 12.508 47.019 13.056 46.691 13.48C46.363 13.904 45.899 14.192 45.299 14.344L47.651 17.5H45.539ZM42.419 10.732V12.976H44.123C44.563 12.976 44.891 12.88 45.107 12.688C45.331 12.488 45.443 12.212 45.443 11.86C45.443 11.508 45.331 11.232 45.107 11.032C44.883 10.832 44.555 10.732 44.123 10.732H42.419ZM55.4236 9.1L52.4596 14.728V17.5H50.7316L50.7436 14.74L47.7676 9.1H49.6996L51.5956 12.808L53.4916 9.1H55.4236ZM60.2037 9.1C61.1157 9.1 61.8397 9.352 62.3757 9.856C62.9197 10.36 63.1917 11.048 63.1917 11.92C63.1917 12.8 62.9197 13.5 62.3757 14.02C61.8317 14.532 61.1077 14.788 60.2037 14.788H58.3917V17.5H56.6757V9.1H60.2037ZM60.1317 13.156C60.5637 13.156 60.8917 13.048 61.1157 12.832C61.3397 12.616 61.4517 12.32 61.4517 11.944C61.4517 11.56 61.3397 11.264 61.1157 11.056C60.8917 10.84 60.5637 10.732 60.1317 10.732H58.3917V13.156H60.1317ZM70.5735 9.1V10.732H68.1495V17.5H66.4335V10.732H64.0215V9.1H70.5735ZM72.6223 10.204C73.4623 9.372 74.5023 8.956 75.7423 8.956C76.9823 8.956 78.0223 9.372 78.8623 10.204C79.7023 11.036 80.1223 12.068 80.1223 13.3C80.1223 14.532 79.7023 15.564 78.8623 16.396C78.0223 17.228 76.9823 17.644 75.7423 17.644C74.5023 17.644 73.4623 17.228 72.6223 16.396C71.7903 15.564 71.3743 14.532 71.3743 13.3C71.3743 12.068 71.7903 11.036 72.6223 10.204ZM77.6263 11.356C77.1303 10.844 76.5023 10.588 75.7423 10.588C74.9823 10.588 74.3503 10.844 73.8463 11.356C73.3503 11.868 73.1023 12.516 73.1023 13.3C73.1023 14.084 73.3503 14.732 73.8463 15.244C74.3503 15.756 74.9823 16.012 75.7423 16.012C76.5023 16.012 77.1303 15.756 77.6263 15.244C78.1303 14.732 78.3823 14.084 78.3823 13.3C78.3823 12.516 78.1303 11.868 77.6263 11.356Z" fill="#8C8C8C"/>
<defs>
<linearGradient id="paint0_linear_11265_20771" x1="13" y1="0" x2="13" y2="26" gradientUnits="userSpaceOnUse">
<stop stop-color="#149DE1"/>
<stop offset="1" stop-color="#107CB2"/>
</linearGradient>
</defs>
</svg>
